<?xml version="1.0" encoding="UTF-8" standalone="no"?>
<!-- Created with Inkscape (http://www.inkscape.org/) -->

<svg
   xmlns:dc="http://purl.org/dc/elements/1.1/"
   xmlns:cc="http://creativecommons.org/ns#"
   xmlns:rdf="http://www.w3.org/1999/02/22-rdf-syntax-ns#"
   xmlns:svg="http://www.w3.org/2000/svg"
   xmlns="http://www.w3.org/2000/svg"
   xmlns:xlink="http://www.w3.org/1999/xlink"
   xmlns:sodipodi="http://sodipodi.sourceforge.net/DTD/sodipodi-0.dtd"
   xmlns:inkscape="http://www.inkscape.org/namespaces/inkscape"
   width="2215.72"
   height="3168"
   id="svg2"
   version="1.1"
   inkscape:version="0.48.5 r10040"
   sodipodi:docname="measurements-cover.svg"
   inkscape:export-filename="/home/user/12characters-translations/pdf/latex/Pictures/art/01-lets-party-like-its-2099.jpg.png"
   inkscape:export-xdpi="90"
   inkscape:export-ydpi="90">
  <defs
     id="defs4">
    <clipPath
       id="clipPath3087"
       clipPathUnits="userSpaceOnUse">
      <path
         id="path3089"
         d="M 0,8317.38 0,0 l 5817.23,0 0,8317.38 -5817.23,0 z"
         inkscape:connector-curvature="0" />
    </clipPath>
  </defs>
  <sodipodi:namedview
     id="base"
     pagecolor="#ffffff"
     bordercolor="#666666"
     borderopacity="1.0"
     inkscape:pageopacity="0.0"
     inkscape:pageshadow="2"
     inkscape:zoom="0.175"
     inkscape:cx="-5.6237612"
     inkscape:cy="1616.5082"
     inkscape:document-units="px"
     inkscape:current-layer="layer1"
     showgrid="false"
     inkscape:window-width="1920"
     inkscape:window-height="1036"
     inkscape:window-x="4"
     inkscape:window-y="44"
     inkscape:window-maximized="0"
     fit-margin-top="0"
     fit-margin-left="0"
     fit-margin-right="0"
     fit-margin-bottom="0"
     inkscape:object-nodes="true" />
  <metadata
     id="metadata7">
    <rdf:RDF>
      <cc:Work
         rdf:about="">
        <dc:format>image/svg+xml</dc:format>
        <dc:type
           rdf:resource="http://purl.org/dc/dcmitype/StillImage" />
        <dc:title></dc:title>
      </cc:Work>
    </rdf:RDF>
  </metadata>
  <g
     inkscape:label="Layer 1"
     inkscape:groupmode="layer"
     id="layer1"
     transform="translate(5627.2178,1712.1654)">
    <rect
       style="fill:#000000;fill-opacity:1;stroke:#000000;stroke-width:7.08661366;stroke-linecap:round;stroke-linejoin:round;stroke-miterlimit:4;stroke-opacity:1;stroke-dasharray:none;stroke-dashoffset:0"
       id="rect3843"
       width="2215.72"
       height="1292.5714"
       x="-5627.2178"
       y="-3004.7368"
       rx="5.0051432"
       ry="5.0051432" />
    <rect
       style="fill:#000000;fill-opacity:1;stroke:#000000;stroke-width:7.08661413;stroke-linecap:round;stroke-linejoin:round;stroke-miterlimit:4;stroke-opacity:1;stroke-dasharray:none;stroke-dashoffset:0"
       id="rect3851"
       width="3568"
       height="1784"
       x="-135.76587"
       y="-231.27173"
       rx="5.0051432"
       ry="5.0051432" />
    <rect
       ry="5.0051432"
       rx="5.0051432"
       y="-1712.1655"
       x="-9195.2178"
       height="3168"
       width="3568"
       id="rect3853"
       style="fill:#000000;fill-opacity:1;stroke:#000000;stroke-width:7.08661413;stroke-linecap:round;stroke-linejoin:round;stroke-miterlimit:4;stroke-opacity:1;stroke-dasharray:none;stroke-dashoffset:0" />
    <image
       y="-1712.1654"
       x="-5627.2178"
       id="image3068"
       xlink:href="file:///home/user/12characters-translations/pdf/latex/Pictures/art-sources/cover.source.jpg"
       height="3168"
       width="4752" />
    <g
       transform="matrix(3.8088917,0,0,-3.8088917,-5627.2178,1455.8346)"
       inkscape:label="background"
       id="g3079">
      <g
         transform="scale(0.1,0.1)"
         id="g3081">
        <g
           id="g3083">
          <g
             clip-path="url(#clipPath3087)"
             id="g3085">
            <path
               id="path3091"
               style="fill:#a6a6a6;fill-opacity:1;fill-rule:nonzero;stroke:none"
               d="M 400.219,0 0,0 l 0,400.23 400.219,0 0,-400.23"
               inkscape:connector-curvature="0" />
            <path
               id="path3093"
               style="fill:#d0cecc;fill-opacity:1;fill-rule:nonzero;stroke:none"
               d="m 400.219,1250.08 -400.219,0 0,400.21 400.219,0 0,-400.21"
               inkscape:connector-curvature="0" />
            <path
               id="path3095"
               style="fill:#dddbda;fill-opacity:1;fill-rule:nonzero;stroke:none"
               d="m 400.219,1666.78 -400.219,0 0,400.21 400.219,0 0,-400.21"
               inkscape:connector-curvature="0" />
            <path
               id="path3097"
               style="fill:#f4f3f2;fill-opacity:1;fill-rule:nonzero;stroke:none"
               d="m 400.219,2500.15 -400.219,0 0,400.22 400.219,0 0,-400.22"
               inkscape:connector-curvature="0" />
            <path
               id="path3099"
               style="fill:#f7f4f3;fill-opacity:1;fill-rule:nonzero;stroke:none"
               d="M 400.219,5417 0,5417 l 0,400.22 400.219,0 0,-400.22"
               inkscape:connector-curvature="0" />
            <path
               id="path3101"
               style="fill:#f0eae6;fill-opacity:1;fill-rule:nonzero;stroke:none"
               d="m 400.219,5833.7 -400.219,0 0,400.22 400.219,0 0,-400.22"
               inkscape:connector-curvature="0" />
            <path
               id="path3103"
               style="fill:#e4d6ce;fill-opacity:1;fill-rule:nonzero;stroke:none"
               d="m 400.219,6667.08 -400.219,0 0,400.22 400.219,0 0,-400.22"
               inkscape:connector-curvature="0" />
            <path
               id="path3105"
               style="fill:#d7baab;fill-opacity:1;fill-rule:nonzero;stroke:none"
               d="m 400.219,7917.16 -400.219,0 0,400.22 400.219,0 0,-400.22"
               inkscape:connector-curvature="0" />
            <path
               id="path3107"
               style="fill:#a8a7a6;fill-opacity:1;fill-rule:nonzero;stroke:none"
               d="m 816.906,0 -400.215,0 0,400.23 400.215,0 0,-400.23"
               inkscape:connector-curvature="0" />
            <path
               id="path3109"
               style="fill:#c3c1bf;fill-opacity:1;fill-rule:nonzero;stroke:none"
               d="m 816.906,416.699 -400.215,0 0,400.211 400.215,0 0,-400.211"
               inkscape:connector-curvature="0" />
            <path
               id="path3111"
               style="fill:#dedbda;fill-opacity:1;fill-rule:nonzero;stroke:none"
               d="m 816.906,1666.78 -400.215,0 0,400.21 400.215,0 0,-400.21"
               inkscape:connector-curvature="0" />
            <path
               id="path3113"
               style="fill:#eae7e6;fill-opacity:1;fill-rule:nonzero;stroke:none"
               d="m 816.906,2083.47 -400.215,0 0,400.22 400.215,0 0,-400.22"
               inkscape:connector-curvature="0" />
            <path
               id="path3115"
               style="fill:#f5f3f2;fill-opacity:1;fill-rule:nonzero;stroke:none"
               d="m 816.906,2500.15 -400.215,0 0,400.22 400.215,0 0,-400.22"
               inkscape:connector-curvature="0" />
            <path
               id="path3117"
               style="fill:#e5d6cf;fill-opacity:1;fill-rule:nonzero;stroke:none"
               d="m 816.906,6667.08 -400.215,0 0,400.22 400.215,0 0,-400.22"
               inkscape:connector-curvature="0" />
            <path
               id="path3119"
               style="fill:#dcc4b6;fill-opacity:1;fill-rule:nonzero;stroke:none"
               d="m 816.906,7500.47 -400.215,0 0,400.22 400.215,0 0,-400.22"
               inkscape:connector-curvature="0" />
            <path
               id="path3121"
               style="fill:#c5c1c0;fill-opacity:1;fill-rule:nonzero;stroke:none"
               d="m 1233.6,416.699 -400.217,0 0,400.211 400.217,0 0,-400.211"
               inkscape:connector-curvature="0" />
            <path
               id="path3123"
               style="fill:#d3cfcd;fill-opacity:1;fill-rule:nonzero;stroke:none"
               d="m 1233.6,1250.08 -400.217,0 0,400.21 400.217,0 0,-400.21"
               inkscape:connector-curvature="0" />
            <path
               id="path3125"
               style="fill:#f1eae6;fill-opacity:1;fill-rule:nonzero;stroke:none"
               d="m 1233.6,5833.7 -400.217,0 0,400.22 400.217,0 0,-400.22"
               inkscape:connector-curvature="0" />
            <path
               id="path3127"
               style="fill:#ece1db;fill-opacity:1;fill-rule:nonzero;stroke:none"
               d="m 1233.6,6250.39 -400.217,0 0,400.22 400.217,0 0,-400.22"
               inkscape:connector-curvature="0" />
            <path
               id="path3129"
               style="fill:#e6d7cf;fill-opacity:1;fill-rule:nonzero;stroke:none"
               d="m 1233.6,6667.08 -400.217,0 0,400.22 400.217,0 0,-400.22"
               inkscape:connector-curvature="0" />
            <path
               id="path3131"
               style="fill:#e2cec3;fill-opacity:1;fill-rule:nonzero;stroke:none"
               d="m 1233.6,7083.78 -400.217,0 0,400.22 400.217,0 0,-400.22"
               inkscape:connector-curvature="0" />
            <path
               id="path3133"
               style="fill:#dec4b6;fill-opacity:1;fill-rule:nonzero;stroke:none"
               d="m 1233.6,7500.47 -400.217,0 0,400.22 400.217,0 0,-400.22"
               inkscape:connector-curvature="0" />
            <path
               id="path3135"
               style="fill:#dcbcac;fill-opacity:1;fill-rule:nonzero;stroke:none"
               d="m 1233.6,7917.16 -400.217,0 0,400.22 400.217,0 0,-400.22"
               inkscape:connector-curvature="0" />
            <path
               id="path3137"
               style="fill:#c6c2c0;fill-opacity:1;fill-rule:nonzero;stroke:none"
               d="m 1650.3,416.699 -400.22,0 0,400.211 400.22,0 0,-400.211"
               inkscape:connector-curvature="0" />
            <path
               id="path3139"
               style="fill:#c8c3c0;fill-opacity:1;fill-rule:nonzero;stroke:none"
               d="m 1650.3,833.398 -400.22,0 0,400.212 400.22,0 0,-400.212"
               inkscape:connector-curvature="0" />
            <path
               id="path3141"
               style="fill:#d5d0cd;fill-opacity:1;fill-rule:nonzero;stroke:none"
               d="m 1650.3,1250.08 -400.22,0 0,400.21 400.22,0 0,-400.21"
               inkscape:connector-curvature="0" />
            <path
               id="path3143"
               style="fill:#e1dcda;fill-opacity:1;fill-rule:nonzero;stroke:none"
               d="m 1650.3,1666.78 -400.22,0 0,400.21 400.22,0 0,-400.21"
               inkscape:connector-curvature="0" />
            <path
               id="path3145"
               style="fill:#ebe8e6;fill-opacity:1;fill-rule:nonzero;stroke:none"
               d="m 1650.3,2083.47 -400.22,0 0,400.22 400.22,0 0,-400.22"
               inkscape:connector-curvature="0" />
            <path
               id="path3147"
               style="fill:#f8f5f3;fill-opacity:1;fill-rule:nonzero;stroke:none"
               d="m 1650.3,5417 -400.22,0 0,400.22 400.22,0 0,-400.22"
               inkscape:connector-curvature="0" />
            <path
               id="path3149"
               style="fill:#ede1db;fill-opacity:1;fill-rule:nonzero;stroke:none"
               d="m 1650.3,6250.39 -400.22,0 0,400.22 400.22,0 0,-400.22"
               inkscape:connector-curvature="0" />
            <path
               id="path3151"
               style="fill:#e4cec3;fill-opacity:1;fill-rule:nonzero;stroke:none"
               d="m 1650.3,7083.78 -400.22,0 0,400.22 400.22,0 0,-400.22"
               inkscape:connector-curvature="0" />
            <path
               id="path3153"
               style="fill:#e0c5b7;fill-opacity:1;fill-rule:nonzero;stroke:none"
               d="m 1650.3,7500.47 -400.22,0 0,400.22 400.22,0 0,-400.22"
               inkscape:connector-curvature="0" />
            <path
               id="path3155"
               style="fill:#b0aaa7;fill-opacity:1;fill-rule:nonzero;stroke:none"
               d="m 2066.99,0 -400.22,0 0,400.23 400.22,0 0,-400.23"
               inkscape:connector-curvature="0" />
            <path
               id="path3157"
               style="fill:#c8c3c0;fill-opacity:1;fill-rule:nonzero;stroke:none"
               d="m 2066.99,416.699 -400.22,0 0,400.211 400.22,0 0,-400.211"
               inkscape:connector-curvature="0" />
            <path
               id="path3159"
               style="fill:#cac4c0;fill-opacity:1;fill-rule:nonzero;stroke:none"
               d="m 2066.99,833.398 -400.22,0 0,400.212 400.22,0 0,-400.212"
               inkscape:connector-curvature="0" />
            <path
               id="path3161"
               style="fill:#f6f4f3;fill-opacity:1;fill-rule:nonzero;stroke:none"
               d="m 2066.99,2500.15 -400.22,0 0,400.22 400.22,0 0,-400.22"
               inkscape:connector-curvature="0" />
            <path
               id="path3163"
               style="fill:#f9f5f3;fill-opacity:1;fill-rule:nonzero;stroke:none"
               d="m 2066.99,5417 -400.22,0 0,400.22 400.22,0 0,-400.22"
               inkscape:connector-curvature="0" />
            <path
               id="path3165"
               style="fill:#eee2db;fill-opacity:1;fill-rule:nonzero;stroke:none"
               d="m 2066.99,6250.39 -400.22,0 0,400.22 400.22,0 0,-400.22"
               inkscape:connector-curvature="0" />
            <path
               id="path3167"
               style="fill:#e6cfc3;fill-opacity:1;fill-rule:nonzero;stroke:none"
               d="m 2066.99,7083.78 -400.22,0 0,400.22 400.22,0 0,-400.22"
               inkscape:connector-curvature="0" />
            <path
               id="path3169"
               style="fill:#b3aba7;fill-opacity:1;fill-rule:nonzero;stroke:none"
               d="m 2483.68,0 -400.22,0 0,400.23 400.22,0 0,-400.23"
               inkscape:connector-curvature="0" />
            <path
               id="path3171"
               style="fill:#cac4c0;fill-opacity:1;fill-rule:nonzero;stroke:none"
               d="m 2483.68,416.699 -400.22,0 0,400.211 400.22,0 0,-400.211"
               inkscape:connector-curvature="0" />
            <path
               id="path3173"
               style="fill:#ccc4c0;fill-opacity:1;fill-rule:nonzero;stroke:none"
               d="m 2483.68,833.398 -400.22,0 0,400.212 400.22,0 0,-400.212"
               inkscape:connector-curvature="0" />
            <path
               id="path3175"
               style="fill:#e3ddda;fill-opacity:1;fill-rule:nonzero;stroke:none"
               d="m 2483.68,1666.78 -400.22,0 0,400.21 400.22,0 0,-400.21"
               inkscape:connector-curvature="0" />
            <path
               id="path3177"
               style="fill:#f6f4f3;fill-opacity:1;fill-rule:nonzero;stroke:none"
               d="m 2483.68,2500.15 -400.22,0 0,400.22 400.22,0 0,-400.22"
               inkscape:connector-curvature="0" />
            <path
               id="path3179"
               style="fill:#f9f5f3;fill-opacity:1;fill-rule:nonzero;stroke:none"
               d="m 2483.68,5417 -400.22,0 0,400.22 400.22,0 0,-400.22"
               inkscape:connector-curvature="0" />
            <path
               id="path3181"
               style="fill:#ebd9cf;fill-opacity:1;fill-rule:nonzero;stroke:none"
               d="m 2483.68,6667.08 -400.22,0 0,400.22 400.22,0 0,-400.22"
               inkscape:connector-curvature="0" />
            <path
               id="path3183"
               style="fill:#e7d0c3;fill-opacity:1;fill-rule:nonzero;stroke:none"
               d="m 2483.68,7083.78 -400.22,0 0,400.22 400.22,0 0,-400.22"
               inkscape:connector-curvature="0" />
            <path
               id="path3185"
               style="fill:#e5c7b7;fill-opacity:1;fill-rule:nonzero;stroke:none"
               d="m 2483.68,7500.47 -400.22,0 0,400.22 400.22,0 0,-400.22"
               inkscape:connector-curvature="0" />
            <path
               id="path3187"
               style="fill:#e3bfac;fill-opacity:1;fill-rule:nonzero;stroke:none"
               d="m 2483.68,7917.16 -400.22,0 0,400.22 400.22,0 0,-400.22"
               inkscape:connector-curvature="0" />
            <path
               id="path3189"
               style="fill:#ccc4c0;fill-opacity:1;fill-rule:nonzero;stroke:none"
               d="m 2900.37,416.699 -400.22,0 0,400.211 400.22,0 0,-400.211"
               inkscape:connector-curvature="0" />
            <path
               id="path3191"
               style="fill:#e4deda;fill-opacity:1;fill-rule:nonzero;stroke:none"
               d="m 2900.37,1666.78 -400.22,0 0,400.21 400.22,0 0,-400.21"
               inkscape:connector-curvature="0" />
            <path
               id="path3193"
               style="fill:#ede9e6;fill-opacity:1;fill-rule:nonzero;stroke:none"
               d="m 2900.37,2083.47 -400.22,0 0,400.22 400.22,0 0,-400.22"
               inkscape:connector-curvature="0" />
            <path
               id="path3195"
               style="fill:#f7f4f3;fill-opacity:1;fill-rule:nonzero;stroke:none"
               d="m 2900.37,2500.15 -400.22,0 0,400.22 400.22,0 0,-400.22"
               inkscape:connector-curvature="0" />
            <path
               id="path3197"
               style="fill:#f9f5f3;fill-opacity:1;fill-rule:nonzero;stroke:none"
               d="m 2900.37,5417 -400.22,0 0,400.22 400.22,0 0,-400.22"
               inkscape:connector-curvature="0" />
            <path
               id="path3199"
               style="fill:#f4ebe7;fill-opacity:1;fill-rule:nonzero;stroke:none"
               d="m 2900.37,5833.7 -400.22,0 0,400.22 400.22,0 0,-400.22"
               inkscape:connector-curvature="0" />
            <path
               id="path3201"
               style="fill:#ecdacf;fill-opacity:1;fill-rule:nonzero;stroke:none"
               d="m 2900.37,6667.08 -400.22,0 0,400.22 400.22,0 0,-400.22"
               inkscape:connector-curvature="0" />
            <path
               id="path3203"
               style="fill:#e6c1ad;fill-opacity:1;fill-rule:nonzero;stroke:none"
               d="m 2900.37,7917.16 -400.22,0 0,400.22 400.22,0 0,-400.22"
               inkscape:connector-curvature="0" />
            <path
               id="path3205"
               style="fill:#cec5c1;fill-opacity:1;fill-rule:nonzero;stroke:none"
               d="m 3317.07,416.699 -400.22,0 0,400.211 400.22,0 0,-400.211"
               inkscape:connector-curvature="0" />
            <path
               id="path3207"
               style="fill:#d0c6c1;fill-opacity:1;fill-rule:nonzero;stroke:none"
               d="m 3317.07,833.398 -400.22,0 0,400.212 400.22,0 0,-400.212"
               inkscape:connector-curvature="0" />
            <path
               id="path3209"
               style="fill:#dbd2cd;fill-opacity:1;fill-rule:nonzero;stroke:none"
               d="m 3317.07,1250.08 -400.22,0 0,400.21 400.22,0 0,-400.21"
               inkscape:connector-curvature="0" />
            <path
               id="path3211"
               style="fill:#e5deda;fill-opacity:1;fill-rule:nonzero;stroke:none"
               d="m 3317.07,1666.78 -400.22,0 0,400.21 400.22,0 0,-400.21"
               inkscape:connector-curvature="0" />
            <path
               id="path3213"
               style="fill:#f7f4f3;fill-opacity:1;fill-rule:nonzero;stroke:none"
               d="m 3317.07,2500.15 -400.22,0 0,400.22 400.22,0 0,-400.22"
               inkscape:connector-curvature="0" />
            <path
               id="path3215"
               style="fill:#f5ece7;fill-opacity:1;fill-rule:nonzero;stroke:none"
               d="m 3317.07,5833.7 -400.22,0 0,400.22 400.22,0 0,-400.22"
               inkscape:connector-curvature="0" />
            <path
               id="path3217"
               style="fill:#f1e3dc;fill-opacity:1;fill-rule:nonzero;stroke:none"
               d="m 3317.07,6250.39 -400.22,0 0,400.22 400.22,0 0,-400.22"
               inkscape:connector-curvature="0" />
            <path
               id="path3219"
               style="fill:#eedacf;fill-opacity:1;fill-rule:nonzero;stroke:none"
               d="m 3317.07,6667.08 -400.22,0 0,400.22 400.22,0 0,-400.22"
               inkscape:connector-curvature="0" />
            <path
               id="path3221"
               style="fill:#e9c9b8;fill-opacity:1;fill-rule:nonzero;stroke:none"
               d="m 3317.07,7500.47 -400.22,0 0,400.22 400.22,0 0,-400.22"
               inkscape:connector-curvature="0" />
            <path
               id="path3223"
               style="fill:#e8c2ad;fill-opacity:1;fill-rule:nonzero;stroke:none"
               d="m 3317.07,7917.16 -400.22,0 0,400.22 400.22,0 0,-400.22"
               inkscape:connector-curvature="0" />
            <path
               id="path3225"
               style="fill:#dcd3ce;fill-opacity:1;fill-rule:nonzero;stroke:none"
               d="m 3733.75,1250.08 -400.21,0 0,400.21 400.21,0 0,-400.21"
               inkscape:connector-curvature="0" />
            <path
               id="path3227"
               style="fill:#f7f4f3;fill-opacity:1;fill-rule:nonzero;stroke:none"
               d="m 3733.75,2500.15 -400.21,0 0,400.22 400.21,0 0,-400.22"
               inkscape:connector-curvature="0" />
            <path
               id="path3229"
               style="fill:#f2e4dc;fill-opacity:1;fill-rule:nonzero;stroke:none"
               d="m 3733.75,6250.39 -400.21,0 0,400.22 400.21,0 0,-400.22"
               inkscape:connector-curvature="0" />
            <path
               id="path3231"
               style="fill:#eccab8;fill-opacity:1;fill-rule:nonzero;stroke:none"
               d="m 3733.75,7500.47 -400.21,0 0,400.22 400.21,0 0,-400.22"
               inkscape:connector-curvature="0" />
            <path
               id="path3233"
               style="fill:#bdb0a8;fill-opacity:1;fill-rule:nonzero;stroke:none"
               d="m 4150.45,0 -400.22,0 0,400.23 400.22,0 0,-400.23"
               inkscape:connector-curvature="0" />
            <path
               id="path3235"
               style="fill:#d1c7c1;fill-opacity:1;fill-rule:nonzero;stroke:none"
               d="m 4150.45,416.699 -400.22,0 0,400.211 400.22,0 0,-400.211"
               inkscape:connector-curvature="0" />
            <path
               id="path3237"
               style="fill:#ded3ce;fill-opacity:1;fill-rule:nonzero;stroke:none"
               d="m 4150.45,1250.08 -400.22,0 0,400.21 400.22,0 0,-400.21"
               inkscape:connector-curvature="0" />
            <path
               id="path3239"
               style="fill:#e7dfdb;fill-opacity:1;fill-rule:nonzero;stroke:none"
               d="m 4150.45,1666.78 -400.22,0 0,400.21 400.22,0 0,-400.21"
               inkscape:connector-curvature="0" />
            <path
               id="path3241"
               style="fill:#f0eae6;fill-opacity:1;fill-rule:nonzero;stroke:none"
               d="m 4150.45,2083.47 -400.22,0 0,400.22 400.22,0 0,-400.22"
               inkscape:connector-curvature="0" />
            <path
               id="path3243"
               style="fill:#f8f5f3;fill-opacity:1;fill-rule:nonzero;stroke:none"
               d="m 4150.45,2500.15 -400.22,0 0,400.22 400.22,0 0,-400.22"
               inkscape:connector-curvature="0" />
            <path
               id="path3245"
               style="fill:#faf6f3;fill-opacity:1;fill-rule:nonzero;stroke:none"
               d="m 4150.45,5417 -400.22,0 0,400.22 400.22,0 0,-400.22"
               inkscape:connector-curvature="0" />
            <path
               id="path3247"
               style="fill:#f6ece7;fill-opacity:1;fill-rule:nonzero;stroke:none"
               d="m 4150.45,5833.7 -400.22,0 0,400.22 400.22,0 0,-400.22"
               inkscape:connector-curvature="0" />
            <path
               id="path3249"
               style="fill:#efd3c4;fill-opacity:1;fill-rule:nonzero;stroke:none"
               d="m 4150.45,7083.78 -400.22,0 0,400.22 400.22,0 0,-400.22"
               inkscape:connector-curvature="0" />
            <path
               id="path3251"
               style="fill:#eecbb8;fill-opacity:1;fill-rule:nonzero;stroke:none"
               d="m 4150.45,7500.47 -400.22,0 0,400.22 400.22,0 0,-400.22"
               inkscape:connector-curvature="0" />
            <path
               id="path3253"
               style="fill:#edc4ad;fill-opacity:1;fill-rule:nonzero;stroke:none"
               d="m 4150.45,7917.16 -400.22,0 0,400.22 400.22,0 0,-400.22"
               inkscape:connector-curvature="0" />
            <path
               id="path3255"
               style="fill:#bfb1a8;fill-opacity:1;fill-rule:nonzero;stroke:none"
               d="m 4567.15,0 -400.22,0 0,400.23 400.22,0 0,-400.23"
               inkscape:connector-curvature="0" />
            <path
               id="path3257"
               style="fill:#d3c8c1;fill-opacity:1;fill-rule:nonzero;stroke:none"
               d="m 4567.15,416.699 -400.22,0 0,400.211 400.22,0 0,-400.211"
               inkscape:connector-curvature="0" />
            <path
               id="path3259"
               style="fill:#d5c8c1;fill-opacity:1;fill-rule:nonzero;stroke:none"
               d="m 4567.15,833.398 -400.22,0 0,400.212 400.22,0 0,-400.212"
               inkscape:connector-curvature="0" />
            <path
               id="path3261"
               style="fill:#e8e0db;fill-opacity:1;fill-rule:nonzero;stroke:none"
               d="m 4567.15,1666.78 -400.22,0 0,400.21 400.22,0 0,-400.21"
               inkscape:connector-curvature="0" />
            <path
               id="path3263"
               style="fill:#fbf6f3;fill-opacity:1;fill-rule:nonzero;stroke:none"
               d="m 4567.15,5417 -400.22,0 0,400.22 400.22,0 0,-400.22"
               inkscape:connector-curvature="0" />
            <path
               id="path3265"
               style="fill:#f7ede7;fill-opacity:1;fill-rule:nonzero;stroke:none"
               d="m 4567.15,5833.7 -400.22,0 0,400.22 400.22,0 0,-400.22"
               inkscape:connector-curvature="0" />
            <path
               id="path3267"
               style="fill:#f4e4dc;fill-opacity:1;fill-rule:nonzero;stroke:none"
               d="m 4567.15,6250.39 -400.22,0 0,400.22 400.22,0 0,-400.22"
               inkscape:connector-curvature="0" />
            <path
               id="path3269"
               style="fill:#f2dcd0;fill-opacity:1;fill-rule:nonzero;stroke:none"
               d="m 4567.15,6667.08 -400.22,0 0,400.22 400.22,0 0,-400.22"
               inkscape:connector-curvature="0" />
            <path
               id="path3271"
               style="fill:#f1d4c4;fill-opacity:1;fill-rule:nonzero;stroke:none"
               d="m 4567.15,7083.78 -400.22,0 0,400.22 400.22,0 0,-400.22"
               inkscape:connector-curvature="0" />
            <path
               id="path3273"
               style="fill:#f0ccb8;fill-opacity:1;fill-rule:nonzero;stroke:none"
               d="m 4567.15,7500.47 -400.22,0 0,400.22 400.22,0 0,-400.22"
               inkscape:connector-curvature="0" />
            <path
               id="path3275"
               style="fill:#f0c5ae;fill-opacity:1;fill-rule:nonzero;stroke:none"
               d="m 4567.15,7917.16 -400.22,0 0,400.22 400.22,0 0,-400.22"
               inkscape:connector-curvature="0" />
            <path
               id="path3277"
               style="fill:#d7c9c2;fill-opacity:1;fill-rule:nonzero;stroke:none"
               d="m 4983.83,833.398 -400.22,0 0,400.212 400.22,0 0,-400.212"
               inkscape:connector-curvature="0" />
            <path
               id="path3279"
               style="fill:#e9e0db;fill-opacity:1;fill-rule:nonzero;stroke:none"
               d="m 4983.83,1666.78 -400.22,0 0,400.21 400.22,0 0,-400.21"
               inkscape:connector-curvature="0" />
            <path
               id="path3281"
               style="fill:#f1eae6;fill-opacity:1;fill-rule:nonzero;stroke:none"
               d="m 4983.83,2083.47 -400.22,0 0,400.22 400.22,0 0,-400.22"
               inkscape:connector-curvature="0" />
            <path
               id="path3283"
               style="fill:#f4ddd0;fill-opacity:1;fill-rule:nonzero;stroke:none"
               d="m 4983.83,6667.08 -400.22,0 0,400.22 400.22,0 0,-400.22"
               inkscape:connector-curvature="0" />
            <path
               id="path3285"
               style="fill:#f2cdb9;fill-opacity:1;fill-rule:nonzero;stroke:none"
               d="m 4983.83,7500.47 -400.22,0 0,400.22 400.22,0 0,-400.22"
               inkscape:connector-curvature="0" />
            <path
               id="path3287"
               style="fill:#d7c9c2;fill-opacity:1;fill-rule:nonzero;stroke:none"
               d="m 5400.53,416.699 -400.22,0 0,400.211 400.22,0 0,-400.211"
               inkscape:connector-curvature="0" />
            <path
               id="path3289"
               style="fill:#ebe0db;fill-opacity:1;fill-rule:nonzero;stroke:none"
               d="m 5400.53,1666.78 -400.22,0 0,400.21 400.22,0 0,-400.21"
               inkscape:connector-curvature="0" />
            <path
               id="path3291"
               style="fill:#f2eae6;fill-opacity:1;fill-rule:nonzero;stroke:none"
               d="m 5400.53,2083.47 -400.22,0 0,400.22 400.22,0 0,-400.22"
               inkscape:connector-curvature="0" />
            <path
               id="path3293"
               style="fill:#f9ede7;fill-opacity:1;fill-rule:nonzero;stroke:none"
               d="m 5400.53,5833.7 -400.22,0 0,400.22 400.22,0 0,-400.22"
               inkscape:connector-curvature="0" />
            <path
               id="path3295"
               style="fill:#f7e6dc;fill-opacity:1;fill-rule:nonzero;stroke:none"
               d="m 5400.53,6250.39 -400.22,0 0,400.22 400.22,0 0,-400.22"
               inkscape:connector-curvature="0" />
            <path
               id="path3297"
               style="fill:#f4ceb9;fill-opacity:1;fill-rule:nonzero;stroke:none"
               d="m 5400.53,7500.47 -400.22,0 0,400.22 400.22,0 0,-400.22"
               inkscape:connector-curvature="0" />
            <path
               id="path3299"
               style="fill:#c7b4a9;fill-opacity:1;fill-rule:nonzero;stroke:none"
               d="m 5817.23,0 -400.22,0 0,400.23 400.22,0 0,-400.23"
               inkscape:connector-curvature="0" />
            <path
               id="path3301"
               style="fill:#d9cac2;fill-opacity:1;fill-rule:nonzero;stroke:none"
               d="m 5817.23,416.699 -400.22,0 0,400.211 400.22,0 0,-400.211"
               inkscape:connector-curvature="0" />
            <path
               id="path3303"
               style="fill:#dacbc2;fill-opacity:1;fill-rule:nonzero;stroke:none"
               d="m 5817.23,833.398 -400.22,0 0,400.212 400.22,0 0,-400.212"
               inkscape:connector-curvature="0" />
            <path
               id="path3305"
               style="fill:#e4d6ce;fill-opacity:1;fill-rule:nonzero;stroke:none"
               d="m 5817.23,1250.08 -400.22,0 0,400.21 400.22,0 0,-400.21"
               inkscape:connector-curvature="0" />
            <path
               id="path3307"
               style="fill:#ece1db;fill-opacity:1;fill-rule:nonzero;stroke:none"
               d="m 5817.23,1666.78 -400.22,0 0,400.21 400.22,0 0,-400.21"
               inkscape:connector-curvature="0" />
            <path
               id="path3309"
               style="fill:#f9f5f3;fill-opacity:1;fill-rule:nonzero;stroke:none"
               d="m 5817.23,2500.15 -400.22,0 0,400.22 400.22,0 0,-400.22"
               inkscape:connector-curvature="0" />
            <path
               id="path3311"
               style="fill:#fcf6f3;fill-opacity:1;fill-rule:nonzero;stroke:none"
               d="m 5817.23,5417 -400.22,0 0,400.22 400.22,0 0,-400.22"
               inkscape:connector-curvature="0" />
            <path
               id="path3313"
               style="fill:#f8e6dc;fill-opacity:1;fill-rule:nonzero;stroke:none"
               d="m 5817.23,6250.39 -400.22,0 0,400.22 400.22,0 0,-400.22"
               inkscape:connector-curvature="0" />
            <path
               id="path3315"
               style="fill:#f6ded0;fill-opacity:1;fill-rule:nonzero;stroke:none"
               d="m 5817.23,6667.08 -400.22,0 0,400.22 400.22,0 0,-400.22"
               inkscape:connector-curvature="0" />
            <path
               id="path3317"
               style="fill:#f6cfb9;fill-opacity:1;fill-rule:nonzero;stroke:none"
               d="m 5817.23,7500.47 -400.22,0 0,400.22 400.22,0 0,-400.22"
               inkscape:connector-curvature="0" />
            <path
               id="path3319"
               style="fill:#f8c8ae;fill-opacity:1;fill-rule:nonzero;stroke:none"
               d="m 5817.23,7917.16 -400.22,0 0,400.22 400.22,0 0,-400.22"
               inkscape:connector-curvature="0" />
          </g>
        </g>
      </g>
    </g>
    <rect
       style="fill:#000000;fill-opacity:1;stroke:#000000;stroke-width:7.08661413;stroke-linecap:round;stroke-linejoin:round;stroke-miterlimit:4;stroke-opacity:1;stroke-dasharray:none;stroke-dashoffset:0"
       id="rect3442"
       width="3568"
       height="3168"
       x="-3411.4978"
       y="-1712.1654"
       rx="5.0051432"
       ry="5.0051432" />
    <rect
       ry="5.0051432"
       rx="5.0051432"
       y="1455.8346"
       x="-5627.2178"
       height="1292.5714"
       width="2215.72"
       id="rect3455"
       style="fill:#000000;fill-opacity:1;stroke:#000000;stroke-width:7.08661366;stroke-linecap:round;stroke-linejoin:round;stroke-miterlimit:4;stroke-opacity:1;stroke-dasharray:none;stroke-dashoffset:0" />
  </g>
</svg>
